<svg viewBox="0 0 1149.09 848.49" xmlns="http://www.w3.org/2000/svg"><path d="m10.92 846.49v-388.62h213.62q59.13 0 89.91 27.76t30.78 79.65q0 30.18-11.17 50.69a90 90 0 0 1 -29.26 32.59q24.74 9.66 39.52 28.06t14.79 54.61q0 54.91-33.8 85.09t-95.94 30.17zm109.22-233.49h73.62q41.64 0 41.64-37.42 0-18.69-10-28.36t-34.69-9.66h-70.57zm0 154.48h78.45q22.93 0 33.79-9.66t10.87-32q0-18.7-10.87-28.36t-36.2-9.66h-76z" fill="#f2672f"/><path d="m724.87 848.49 143.62-196.72-138.19-191.9h125.17l71.21 102 81.81-102h135.17l-138.19 191.9 143.62 196.72h-137l-75.43-105.6-74.83 105.6z" fill="#00b5dd"/><g fill="#f2672f"><path d="m102.3 406.52a337.3 337.3 0 0 1 -48.3-3.32 241.81 241.81 0 0 1 -44-10.56v-94.13a147.72 147.72 0 0 0 32.58 9.05 219 219 0 0 0 36.21 3q32.58 0 46.46-13.28t13.88-44.05v-241.36h113.43v259.48q0 63.36-38.32 99.27t-111.94 35.9z"/><path d="m270.67 400.49 149.05-388.62h120.08l149.05 388.62h-118.27l-32.58-82.67h-117.08l-32 82.67zm165.33-164.14h86.9l-43.45-114z"/><path d="m731.09 400.49v-388.62h100.43l96.55 197.33 105.93-197.33h109.83v388.62h-113.43v-194.31l-62.16 127.93h-60.94l-62.76-127.93v194.31z"/></g><path d="m92.33 394.65a337.34 337.34 0 0 1 -48.28-3.32 242.21 242.21 0 0 1 -44.05-10.56v-94.13a147.82 147.82 0 0 0 32.59 9.05 218.79 218.79 0 0 0 36.2 3q32.59 0 46.47-13.28t13.88-44.05v-241.36h113.44v259.48q0 63.36-38.31 99.27t-111.94 35.9z" fill="#07b5df"/><path d="m260.69 388.62 149.05-388.62h120.09l149 388.62h-118.23l-32.6-82.62h-117l-32 82.67zm165.31-164.14h86.9l-43.45-114z" fill="#07b5df"/><path d="m721.12 388.62v-388.62h110.42l96.56 197.33 95.9-197.33h109.83v388.62h-113.41v-194.31l-62.15 127.93h-60.95l-62.76-127.93v194.31z" fill="#07b5df"/><path d="m1 836.25v-388.62h213.58q59.13 0 89.91 27.76t30.78 79.66q0 30.18-11.17 50.69a90.05 90.05 0 0 1 -29.27 32.58q24.75 9.66 39.53 28.06t14.79 54.62q0 54.93-33.8 85.09t-96 30.17zm109.18-233.53h73.62q41.64 0 41.64-37.41 0-18.7-10-28.37t-34.7-9.65h-70.6zm0 154.48h78.45q22.92 0 33.79-9.65t10.86-32q0-18.69-10.86-28.36t-36.21-9.65h-76z" fill="#01b5de"/><path d="m714.63 837.25 143.62-196.72-138.19-191.9h135.17l71.21 102 71.81-102h135.17l-138.19 191.9 143.62 196.72h-137l-75.43-105.6-74.83 105.6z" fill="#f2662e"/><path d="m754 587.8-119-112.61c-.47-.44-1-.87-1.45-1.28l-3.41 11-51.23 164.8 37-6-90.11 183.1-5.46 13 6.75 6.38a7.51 7.51 0 0 0 7.3 1.75l169.44-50.4a30 30 0 0 0 20.61-21.76l38.06-159.3a30 30 0 0 0 -8.5-28.68z" fill="#01b5de"/><path d="m436.57 506.12 171.34-51.79a7.6 7.6 0 0 1 7.38 1.73l129.09 122.05c7.88 7.39 3.63 16.66 1.16 27.17l-28.8 163.72a30.24 30.24 0 0 1 -20.69 22l-158.82 48c-10.34 3.12-17.94 1.29-26.07-4.52l-9.29-7.89-105-105.44c-7.87-7.36-13.38-19.65-10.87-30.15l29.92-162.82a30.24 30.24 0 0 1 20.65-22.06z" fill="#fff"/><path d="m565.76 656.8 34-6-83.76 172.38-4.77 11.41a30.23 30.23 0 0 0 27.32 5.24l158.45-47.11a30.22 30.22 0 0 0 20.78-22l38.39-160.68a30.23 30.23 0 0 0 -8.62-29l-122.3-115.66-4 12.91z" fill="#f2662e"/><path d="m381.61 712.73 120.3 113.88c.47.45 1 .88 1.46 1.29l3.45-11.1 51.81-166.66-37.4 6.07 91.11-185.21 5.52-13.19-6.86-6.44a7.58 7.58 0 0 0 -7.38-1.77l-171.37 51a30.33 30.33 0 0 0 -20.84 22l-38.41 161.08a30.31 30.31 0 0 0 8.61 29.05z" fill="#01b5de"/></svg>